<svg width="22" height="22" viewBox="0 0 22 22" fill="none" xmlns="http://www.w3.org/2000/svg">
<g clip-path="url(#clip0_13_2)">
<path d="M11 0C8.8244 0 6.69767 0.645139 4.88872 1.85383C3.07978 3.06253 1.66989 4.7805 0.837322 6.79048C0.0047585 8.80047 -0.213078 11.0122 0.211359 13.146C0.635797 15.2798 1.68345 17.2398 3.22182 18.7782C4.7602 20.3166 6.72021 21.3642 8.854 21.7886C10.9878 22.2131 13.1995 21.9952 15.2095 21.1627C17.2195 20.3301 18.9375 18.9202 20.1462 17.1113C21.3549 15.3023 22 13.1756 22 11C22 8.08262 20.8411 5.28473 18.7782 3.22183C16.7153 1.15893 13.9174 0 11 0V0ZM17.226 15.664L15.675 17.215L11 12.551L6.336 17.226L4.774 15.664L9.449 11L4.774 6.336L6.336 4.774L11 9.449L15.664 4.785L17.215 6.336L12.551 11L17.226 15.664Z" fill="#CCCCCC"/>
</g>
<defs>
<clipPath id="clip0_13_2">
<rect width="22" height="22" fill="white"/>
</clipPath>
</defs>
</svg>
