<svg width="24" height="24" viewBox="0 0 24 24" fill="none" xmlns="http://www.w3.org/2000/svg">
<path d="M24 12C24 18.6273 18.6273 24 12 24C5.37333 24 0 18.6273 0 12C0 5.37333 5.37333 0 12 0C18.6273 0 24 5.37333 24 12Z" fill="#FFCC4D"/>
<path d="M7.66667 13.3333C8.58714 13.3333 9.33333 12.2887 9.33333 11C9.33333 9.71133 8.58714 8.66666 7.66667 8.66666C6.74619 8.66666 6 9.71133 6 11C6 12.2887 6.74619 13.3333 7.66667 13.3333Z" fill="#664500"/>
<path d="M16.3333 13.3333C17.2538 13.3333 18 12.2887 18 11C18 9.71133 17.2538 8.66666 16.3333 8.66666C15.4128 8.66666 14.6667 9.71133 14.6667 11C14.6667 12.2887 15.4128 13.3333 16.3333 13.3333Z" fill="#664500"/>
<path d="M3.99934 8C3.87559 7.99988 3.75432 7.96531 3.6491 7.90017C3.54388 7.83503 3.45886 7.74189 3.40358 7.63118C3.34829 7.52047 3.32491 7.39655 3.33605 7.2733C3.3472 7.15005 3.39243 7.03234 3.46668 6.93333C5.64134 4.03333 8.54401 4 8.66668 4C8.75423 3.99983 8.84095 4.0169 8.9219 4.05024C9.00285 4.08358 9.07644 4.13254 9.13847 4.19432C9.2005 4.2561 9.24976 4.3295 9.28342 4.41031C9.31709 4.49113 9.3345 4.57779 9.33468 4.66533C9.33485 4.75288 9.31778 4.83961 9.28444 4.92056C9.2511 5.00151 9.20214 5.0751 9.14036 5.13713C9.07858 5.19916 9.00518 5.24841 8.92436 5.28208C8.84355 5.31574 8.75689 5.33316 8.66934 5.33333C8.56601 5.33467 6.29068 5.39067 4.53334 7.73333C4.47125 7.8163 4.39064 7.88361 4.29793 7.92991C4.20522 7.97621 4.10297 8.00021 3.99934 8V8ZM20.0007 8C19.8971 8.00021 19.7948 7.97621 19.7021 7.92991C19.6094 7.88361 19.5288 7.8163 19.4667 7.73333C17.7067 5.386 15.426 5.33467 15.3293 5.33333C15.1531 5.3314 14.9848 5.25989 14.861 5.1344C14.7373 5.0089 14.6681 4.83958 14.6687 4.66333C14.669 4.48729 14.7392 4.31857 14.8638 4.19421C14.9884 4.06985 15.1573 4 15.3333 4C15.456 4 18.358 4.03333 20.5333 6.93333C20.6076 7.03234 20.6528 7.15005 20.664 7.2733C20.6751 7.39655 20.6517 7.52047 20.5964 7.63118C20.5412 7.74189 20.4561 7.83503 20.3509 7.90017C20.2457 7.96531 20.1244 7.99988 20.0007 8V8ZM15.6567 18.586C15.6493 18.5567 14.8933 15.6667 12 15.6667C9.10668 15.6667 8.35068 18.5567 8.34334 18.586C8.32677 18.655 8.33286 18.7276 8.36071 18.7929C8.38857 18.8582 8.43671 18.9128 8.49801 18.9487C8.55999 18.9848 8.6318 19.0003 8.70317 18.9931C8.77453 18.986 8.8418 18.9564 8.89534 18.9087C8.90134 18.9033 9.57068 18.3333 12 18.3333C14.3933 18.3333 15.078 18.8867 15.104 18.9087C15.1564 18.9583 15.2234 18.9895 15.295 18.9978C15.3667 19.0061 15.439 18.9909 15.5013 18.9545C15.5636 18.9182 15.6124 18.8626 15.6404 18.7962C15.6684 18.7297 15.6741 18.656 15.6567 18.586Z" fill="#664500"/>
</svg>
